<svg xmlns="http://www.w3.org/2000/svg" width="205.024" height="263.187" viewBox="0 0 54.2461 69.6349" fill-opacity="0" stroke="#c2c2c2">
  <path d="M2.11 45.0572V8.022q0-2.6164 1.3984-4.2854Q4.9518 2.0223 7.523 2.0223q2.48 0 3.9246 1.7142 1.4435 1.669 1.4435 4.2854V44.606q0 5.8643 4.06 9.879 4.06 3.9697 10.1948 3.9697 6.135 0 10.0595-4.105 3.9697-4.105 3.9697-10.285V7.8415q0-2.5262 1.4435-4.15 1.4435-1.669 3.9246-1.669 2.5713 0 4.0148 1.7142 1.4435 1.669 1.4435 4.2854V44.606q0 10.195-7.0823 17.0065Q37.837 68.379 27.146 68.379q-5.73 0-10.5557-1.8946-4.7817-1.9397-7.9394-5.1876-3.1126-3.248-4.8268-7.443Q2.11 49.6584 2.11 45.0572z" stroke-width="2.3096" stroke-opacity=".9952"/>
  <g stroke-width="2.6373">
    <path d="M141.8713 31.1863q-1.803-1.4938-1.803-4.0693 0-2.5755 1.803-3.9663 1.8544-1.3908 4.636-1.3908h25.3948q2.7816 0 4.5845 1.3908 1.8544 1.3908 1.8544 3.9663 0 2.5755-1.8544 4.0693-1.803 1.4423-4.5845 1.4423h-25.3948q-2.7816 0-4.636-1.4423z" transform="matrix(.69573104 .71830239 -.71830239 .69573104 -74.0129 -115.8309)" stroke-opacity=".9952"/>
    <path d="M1.1736 176.1964q-1.803-1.4938-1.803-4.0693 0-2.5755 1.803-3.9663 1.8544-1.3908 4.636-1.3908h25.3948q2.7816 0 4.5845 1.3908 1.8544 1.3908 1.8544 3.9663 0 2.5755-1.8544 4.0693-1.803 1.4423-4.5845 1.4423H5.8096q-2.7816 0-4.636-1.4423z" transform="matrix(-.69573153 .71830192 .71830192 .69573153 -74.0129 -115.8309)" stroke-opacity=".9952"/>
  </g>
</svg>
